
  <svg xmlns="http://www.w3.org/2000/svg" xmlns:xlink="http://www.w3.org/1999/xlink" version="1.1" width="200pt" height="auto" viewBox="0 0 566.93 170.04">
  <defs>
  <clipPath id="clip_0">
  <path transform="matrix(1,0,0,-1,0,170.04)" d="M0 170.04H566.93V0H0Z"/>
  </clipPath>
  </defs>
  <g id="layer_1" data-name="">
  <g clip-path="url(#clip_0)">
  <path transform="matrix(1,0,0,-1,137.5324,75.51669)" d="M0 0C-26.994 16.031-71.52 17.505-97.289 9.684-101.428 8.428-105.804 10.764-107.057 14.902-108.311 19.043-105.978 23.416-101.837 24.674-72.255 33.653-23.081 31.919 7.995 13.472 11.718 11.262 12.938 6.455 10.732 2.739 8.524-.983 3.713-2.21 0 0M-.884-23.744C-2.778-26.817-6.796-27.781-9.865-25.894-32.369-12.061-66.687-8.053-93.312-16.135-96.764-17.178-100.411-15.232-101.46-11.785-102.5-8.333-100.553-4.693-97.106-3.643-66.691 5.587-28.88 1.117-3.032-14.768 .037-16.658 1.003-20.678-.884-23.744M-11.131-46.547C-12.636-49.015-15.849-49.788-18.308-48.284-37.973-36.265-62.725-33.551-91.875-40.209-94.684-40.853-97.484-39.093-98.124-36.285-98.768-33.476-97.014-30.676-94.199-30.035-62.299-22.743-34.936-25.881-12.863-39.369-10.402-40.872-9.627-44.087-11.131-46.547M-49.537 74.24C-95.786 74.24-133.28 36.747-133.28-9.502-133.28-55.756-95.786-93.247-49.537-93.247-3.286-93.247 34.207-55.756 34.207-9.502 34.207 36.747-3.286 74.24-49.537 74.24" fill="#2d2a26"/>
  <path transform="matrix(1,0,0,-1,232.0887,78.5862)" d="M0 0C-14.459 3.448-17.033 5.868-17.033 10.953-17.033 15.757-12.51 18.989-5.784 18.989 .736 18.989 7.2 16.534 13.979 11.48 14.184 11.327 14.441 11.266 14.694 11.306 14.947 11.344 15.171 11.482 15.319 11.692L22.379 21.644C22.669 22.054 22.59 22.619 22.199 22.932 14.132 29.405 5.048 32.552-5.57 32.552-21.182 32.552-32.087 23.184-32.087 9.778-32.087-4.597-22.68-9.686-6.424-13.616 7.412-16.803 9.747-19.472 9.747-24.246 9.747-29.535 5.026-32.823-2.573-32.823-11.013-32.823-17.897-29.98-25.598-23.311-25.789-23.147-26.051-23.071-26.293-23.085-26.548-23.106-26.781-23.224-26.943-23.419L-34.859-32.84C-35.191-33.231-35.149-33.815-34.765-34.153-25.805-42.152-14.785-46.377-2.894-46.377 13.93-46.377 24.8-37.185 24.8-22.958 24.8-10.934 17.617-4.284 0 0" fill="#2d2a26"/>
  <path transform="matrix(1,0,0,-1,307.1621,94.701099)" d="M0 0C0-10.153-6.254-17.238-15.209-17.238-24.062-17.238-30.74-9.831-30.74 0-30.74 9.83-24.062 17.238-15.209 17.238-6.398 17.238 0 9.99 0 0M-12.212 30.375C-19.504 30.375-25.485 27.503-30.417 21.618V28.242C-30.417 28.765-30.841 29.191-31.364 29.191H-44.31C-44.833 29.191-45.256 28.765-45.256 28.242V-45.36C-45.256-45.883-44.833-46.309-44.31-46.309H-31.364C-30.841-46.309-30.417-45.883-30.417-45.36V-22.127C-25.484-27.664-19.502-30.368-12.212-30.368 1.337-30.368 15.053-19.938 15.053 0 15.053 19.942 1.337 30.375-12.212 30.375" fill="#2d2a26"/>
  <path transform="matrix(1,0,0,-1,357.3732,112.04509)" d="M0 0C-9.281 0-16.278 7.457-16.278 17.344-16.278 27.273-9.523 34.478-.214 34.478 9.126 34.478 16.171 27.021 16.171 17.127 16.171 7.2 9.37 0 0 0M0 47.719C-17.449 47.719-31.119 34.283-31.119 17.127-31.119 .158-17.543-13.137-.214-13.137 17.297-13.137 31.009 .255 31.009 17.344 31.009 34.377 17.391 47.719 0 47.719" fill="#2d2a26"/>
  <path transform="matrix(1,0,0,-1,425.6439,65.51029)" d="M0 0H-14.247V14.566C-14.247 15.089-14.669 15.515-15.192 15.515H-28.137C-28.661 15.515-29.087 15.089-29.087 14.566V0H-35.312C-35.833 0-36.255-.426-36.255-.949V-12.075C-36.255-12.598-35.833-13.024-35.312-13.024H-29.087V-41.815C-29.087-53.45-23.296-59.35-11.875-59.35-7.231-59.35-3.378-58.391 .254-56.332 .548-56.167 .732-55.849 .732-55.511V-44.915C.732-44.588 .562-44.279 .282-44.108 0-43.931-.351-43.922-.64-44.065-3.134-45.32-5.545-45.899-8.24-45.899-12.393-45.899-14.247-44.013-14.247-39.786V-13.024H0C.523-13.024 .944-12.598 .944-12.075V-.949C.944-.426 .523 0 0 0" fill="#2d2a26"/>
  <path transform="matrix(1,0,0,-1,475.281,65.566699)" d="M0 0V1.789C0 7.052 2.018 9.399 6.544 9.399 9.243 9.399 11.411 8.863 13.839 8.053 14.138 7.959 14.45 8.006 14.693 8.185 14.943 8.364 15.084 8.651 15.084 8.954V19.865C15.084 20.281 14.816 20.651 14.415 20.773 11.85 21.536 8.568 22.32 3.654 22.32-8.305 22.32-14.625 15.585-14.625 2.853V.113H-20.844C-21.367 .113-21.795-.313-21.795-.835V-12.019C-21.795-12.541-21.367-12.968-20.844-12.968H-14.625V-57.377C-14.625-57.9-14.203-58.326-13.681-58.326H-.735C-.212-58.326 .214-57.9 .214-57.377V-12.968H12.302L30.819-57.365C28.717-62.03 26.65-62.958 23.828-62.958 21.547-62.958 19.145-62.277 16.689-60.934 16.458-60.807 16.185-60.785 15.935-60.863 15.688-60.95 15.48-61.134 15.375-61.374L10.987-71.001C10.778-71.456 10.956-71.99 11.394-72.226 15.975-74.707 20.111-75.766 25.221-75.766 34.781-75.766 40.065-71.313 44.724-59.333L67.185-1.292C67.297-1.001 67.264-.671 67.085-.412 66.907-.155 66.62 0 66.306 0H52.828C52.425 0 52.063-.257 51.931-.636L38.124-40.073 23.001-.61C22.863-.243 22.51 0 22.117 0Z" fill="#2d2a26"/>
  <path transform="matrix(1,0,0,-1,446.5048,65.51029)" d="M0 0H-12.947C-13.469 0-13.895-.426-13.895-.949V-57.433C-13.895-57.956-13.469-58.382-12.947-58.382H0C.522-58.382 .949-57.956 .949-57.433V-.949C.949-.426 .522 0 0 0" fill="#2d2a26"/>
  <path transform="matrix(1,0,0,-1,440.0974,39.79129)" d="M0 0C-5.129 0-9.291-4.152-9.291-9.281-9.291-14.413-5.129-18.57 0-18.57 5.127-18.57 9.285-14.413 9.285-9.281 9.285-4.152 5.127 0 0 0" fill="#2d2a26"/>
  <path transform="matrix(1,0,0,-1,554.0493,71.12879)" d="M0 0H-2.372V-3.025H0C1.184-3.025 1.891-2.446 1.891-1.512 1.891-.527 1.184 0 0 0M1.537-4.315 4.115-7.923H1.942L-.378-4.614H-2.372V-7.923H-4.191V1.64H.073C2.295 1.64 3.757 .503 3.757-1.41 3.757-2.978 2.851-3.936 1.537-4.315M-.483 4.823C-5.149 4.823-8.681 1.113-8.681-3.43-8.681-7.97-5.175-11.631-.53-11.631 4.135-11.631 7.671-7.923 7.671-3.378 7.671 1.163 4.162 4.823-.483 4.823M-.53-12.542C-5.654-12.542-9.641-8.427-9.641-3.43-9.641 1.567-5.602 5.729-.483 5.729 4.641 5.729 8.628 1.615 8.628-3.378 8.628-8.376 4.592-12.542-.53-12.542" fill="#2d2a26"/>
  </g>
  </g>
  </svg>
